<svg xmlns="http://www.w3.org/2000/svg" width="375" viewBox="0 0 375 375" height="375" version="1.0"><defs><clipPath id="a"><path d="M 151 183 L 224 183 L 224 217.53125 L 151 217.53125 Z M 151 183"/></clipPath><clipPath id="b"><path d="M 180 208 L 194 208 L 194 217.53125 L 180 217.53125 Z M 180 208"/></clipPath><clipPath id="c"><path d="M 149.839844 131.28125 L 224.839844 131.28125 L 224.839844 217.53125 L 149.839844 217.53125 Z M 149.839844 131.28125"/></clipPath></defs><path fill="#FFF" d="M-37.5 -37.5H412.5V412.5H-37.5z"/><path fill="#FFF" d="M-37.5 -37.5H412.5V412.5H-37.5z"/><path fill="#091353" d="M-37.5 -37.5H412.5V412.5H-37.5z"/><path fill="#5CE1E6" d="M 202.308594 111.527344 C 197.738281 109.988281 192.539062 108.976562 187.433594 108.976562 C 182.332031 108.976562 177.421875 109.84375 172.898438 111.382812 C 172.800781 111.433594 172.703125 111.433594 172.609375 111.480469 C 155.617188 117.644531 143.101562 133.914062 142.859375 152.929688 L 142.859375 217.726562 L 232.058594 217.726562 L 232.058594 152.976562 C 231.816406 133.816406 219.496094 117.546875 202.308594 111.527344"/><g clip-path="url(#a)"><path fill="#FFF" d="M 223.597656 217.558594 C 223.597656 213.847656 221.757812 209.414062 216.671875 207.894531 C 216.730469 207.53125 216.769531 207.164062 216.789062 206.796875 C 216.8125 206.425781 216.8125 206.058594 216.792969 205.691406 C 216.773438 205.320312 216.734375 204.957031 216.671875 204.589844 C 216.613281 204.226562 216.535156 203.867188 216.4375 203.511719 C 216.339844 203.15625 216.222656 202.808594 216.085938 202.464844 C 215.949219 202.121094 215.796875 201.789062 215.625 201.460938 C 215.449219 201.136719 215.261719 200.820312 215.054688 200.515625 C 214.847656 200.207031 214.625 199.914062 214.390625 199.632812 C 214.152344 199.351562 213.898438 199.085938 213.628906 198.832031 C 213.363281 198.578125 213.082031 198.339844 212.789062 198.113281 C 212.496094 197.890625 212.195312 197.683594 211.878906 197.492188 C 211.5625 197.304688 211.238281 197.128906 210.90625 196.976562 C 210.570312 196.820312 210.230469 196.683594 209.878906 196.566406 C 209.53125 196.449219 209.175781 196.347656 208.816406 196.269531 C 208.457031 196.1875 208.09375 196.128906 207.730469 196.089844 C 207.363281 196.050781 206.996094 196.027344 206.628906 196.027344 C 204.972656 196.027344 203.410156 196.40625 201.9375 197.171875 C 200.078125 193.558594 196.03125 191.285156 192.675781 191.285156 C 192.023438 191.273438 191.378906 191.339844 190.738281 191.476562 L 190.773438 191.285156 L 190.773438 183.664062 L 183.894531 183.664062 L 183.894531 191.285156 L 183.925781 191.476562 C 183.289062 191.339844 182.640625 191.273438 181.988281 191.285156 C 175.800781 190.734375 172.113281 196.164062 172.613281 197.117188 C 171.757812 196.683594 170.859375 196.382812 169.917969 196.207031 C 168.976562 196.027344 168.03125 195.984375 167.078125 196.078125 C 166.125 196.167969 165.203125 196.390625 164.3125 196.742188 C 163.421875 197.09375 162.59375 197.5625 161.835938 198.144531 C 161.078125 198.730469 160.414062 199.410156 159.84375 200.179688 C 159.277344 200.953125 158.828125 201.789062 158.492188 202.6875 C 158.160156 203.589844 157.957031 204.515625 157.886719 205.472656 C 157.816406 206.429688 157.878906 207.378906 158.074219 208.316406 C 153.578125 208.761719 151.066406 213.84375 151.066406 217.558594 Z M 223.597656 217.558594"/></g><path fill="#FF8B59" d="M 175.488281 149.539062 L 174.988281 154.199219 C 174.84375 155.550781 174.480469 156.839844 173.894531 158.066406 C 173.308594 159.289062 172.539062 160.382812 171.578125 161.34375 L 168.15625 164.773438 C 167.039062 165.890625 166.183594 167.175781 165.578125 168.636719 C 164.976562 170.09375 164.675781 171.609375 164.675781 173.1875 L 164.675781 179.242188 L 187.332031 179.242188 L 187.332031 142.996094 L 182.753906 142.996094 C 182.308594 142.996094 181.863281 143.039062 181.425781 143.121094 C 180.984375 143.203125 180.554688 143.324219 180.136719 143.484375 C 179.722656 143.644531 179.320312 143.839844 178.941406 144.074219 C 178.558594 144.308594 178.203125 144.574219 177.871094 144.875 C 177.535156 145.171875 177.234375 145.5 176.960938 145.855469 C 176.6875 146.210938 176.449219 146.585938 176.246094 146.984375 C 176.042969 147.386719 175.878906 147.800781 175.75 148.226562 C 175.621094 148.65625 175.535156 149.09375 175.488281 149.539062 Z M 175.488281 149.539062"/><path fill="#FFF" d="M 187.332031 179.242188 L 164.675781 179.242188 L 164.675781 175.378906 L 187.332031 175.378906"/><path fill="#FF8B59" d="M 199.175781 149.539062 L 199.675781 154.199219 C 199.820312 155.550781 200.183594 156.839844 200.769531 158.066406 C 201.355469 159.289062 202.128906 160.382812 203.085938 161.34375 L 206.511719 164.773438 C 207.625 165.890625 208.480469 167.175781 209.085938 168.636719 C 209.6875 170.09375 209.988281 171.609375 209.988281 173.1875 L 209.988281 179.242188 L 187.332031 179.242188 L 187.332031 142.996094 L 191.910156 142.996094 C 192.359375 142.996094 192.800781 143.039062 193.242188 143.121094 C 193.679688 143.203125 194.109375 143.324219 194.527344 143.484375 C 194.945312 143.644531 195.34375 143.839844 195.722656 144.074219 C 196.105469 144.308594 196.460938 144.574219 196.796875 144.875 C 197.128906 145.171875 197.429688 145.5 197.703125 145.855469 C 197.976562 146.210938 198.214844 146.585938 198.417969 146.984375 C 198.621094 147.386719 198.785156 147.800781 198.914062 148.226562 C 199.042969 148.65625 199.128906 149.09375 199.175781 149.539062 Z M 199.175781 149.539062"/><path fill="#FFF" d="M 187.332031 179.242188 L 209.988281 179.242188 L 209.988281 175.378906 L 187.332031 175.378906"/><path fill="#FFF" d="M 179.75 177.777344 L 182.65625 185.648438 L 192.007812 185.648438 L 194.914062 177.777344 Z M 179.75 177.777344"/><path fill="#FF8B59" d="M 193.730469 169.660156 L 193.730469 140.800781 C 193.472656 138.601562 192.753906 136.570312 191.570312 134.703125 C 191.457031 134.523438 191.332031 134.355469 191.199219 134.195312 C 191.0625 134.03125 190.921875 133.878906 190.765625 133.734375 C 190.613281 133.59375 190.449219 133.460938 190.28125 133.335938 C 190.109375 133.210938 189.933594 133.101562 189.75 133 C 189.5625 132.898438 189.375 132.808594 189.179688 132.734375 C 188.984375 132.65625 188.785156 132.589844 188.578125 132.539062 C 188.375 132.488281 188.171875 132.449219 187.960938 132.421875 C 187.753906 132.394531 187.542969 132.382812 187.335938 132.382812 C 187.125 132.382812 186.914062 132.394531 186.707031 132.421875 C 186.496094 132.449219 186.292969 132.488281 186.089844 132.539062 C 185.882812 132.589844 185.683594 132.65625 185.488281 132.734375 C 185.292969 132.808594 185.105469 132.898438 184.917969 133 C 184.734375 133.101562 184.558594 133.214844 184.386719 133.335938 C 184.21875 133.460938 184.054688 133.59375 183.902344 133.738281 C 183.75 133.878906 183.605469 134.03125 183.46875 134.195312 C 183.335938 134.355469 183.210938 134.527344 183.097656 134.703125 C 181.910156 136.570312 181.191406 138.601562 180.933594 140.800781 L 180.933594 169.660156 L 178.691406 174.753906 L 178.691406 181.109375 L 195.972656 181.109375 L 195.972656 174.753906 Z M 193.730469 169.660156"/><path fill="#FF8B59" d="M 185.050781 140.542969 C 184.453125 141.074219 184.066406 141.734375 183.886719 142.519531 L 183.886719 145.691406 L 190.777344 145.691406 L 190.777344 142.519531 C 190.601562 141.734375 190.210938 141.078125 189.613281 140.542969 C 188.546875 139.539062 186.121094 139.539062 185.050781 140.542969 Z M 185.050781 140.542969"/><path fill="#FFF" d="M 185.574219 181.039062 L 185.574219 167.316406 L 189.089844 167.316406 L 189.089844 181.039062"/><g clip-path="url(#b)"><path fill="#091353" d="M 180.84375 208.53125 L 180.84375 210.703125 C 181.835938 210.703125 182.78125 210.910156 183.683594 211.320312 C 184.585938 211.734375 185.363281 212.316406 186.011719 213.066406 C 185.210938 214.457031 184.808594 215.953125 184.8125 217.558594 L 186.980469 217.558594 C 186.980469 217.109375 187.023438 216.664062 187.113281 216.222656 C 187.199219 215.78125 187.328125 215.351562 187.5 214.9375 C 187.675781 214.519531 187.886719 214.125 188.132812 213.753906 C 188.382812 213.378906 188.667969 213.03125 188.984375 212.714844 C 189.300781 212.394531 189.648438 212.113281 190.019531 211.863281 C 190.394531 211.613281 190.789062 211.398438 191.203125 211.226562 C 191.617188 211.054688 192.046875 210.925781 192.484375 210.835938 C 192.925781 210.75 193.371094 210.703125 193.820312 210.703125 L 193.820312 208.53125 C 192.597656 208.53125 191.421875 208.773438 190.296875 209.253906 C 189.167969 209.734375 188.183594 210.417969 187.335938 211.300781 C 186.488281 210.417969 185.5 209.734375 184.371094 209.253906 C 183.246094 208.773438 182.070312 208.53125 180.84375 208.53125 Z M 180.84375 208.53125"/></g><g clip-path="url(#c)"><path fill="#091353" d="M 217.855469 207.183594 L 217.847656 207.203125 C 217.875 206.882812 217.890625 206.554688 217.890625 206.226562 C 217.890625 205.769531 217.863281 205.316406 217.808594 204.863281 C 217.753906 204.414062 217.671875 203.964844 217.5625 203.523438 C 217.453125 203.082031 217.320312 202.648438 217.160156 202.222656 C 216.996094 201.796875 216.8125 201.378906 216.597656 200.976562 C 216.386719 200.574219 216.152344 200.183594 215.894531 199.8125 C 215.636719 199.4375 215.355469 199.078125 215.054688 198.738281 C 214.753906 198.398438 214.433594 198.074219 214.09375 197.773438 C 213.75 197.472656 213.394531 197.191406 213.019531 196.933594 C 212.644531 196.675781 212.257812 196.441406 211.855469 196.230469 C 211.453125 196.019531 211.039062 195.832031 210.613281 195.671875 C 210.1875 195.511719 209.753906 195.375 209.3125 195.265625 C 208.871094 195.160156 208.425781 195.078125 207.972656 195.023438 C 207.523438 194.96875 207.070312 194.941406 206.613281 194.941406 C 206.160156 194.945312 205.707031 194.972656 205.257812 195.027344 C 204.804688 195.082031 204.359375 195.164062 203.917969 195.277344 C 203.476562 195.386719 203.042969 195.523438 202.617188 195.683594 C 202.089844 194.84375 201.464844 194.082031 200.742188 193.402344 C 200.019531 192.71875 199.222656 192.140625 198.355469 191.660156 C 197.484375 191.179688 196.570312 190.816406 195.609375 190.570312 C 194.648438 190.320312 193.671875 190.195312 192.675781 190.195312 C 192.378906 190.195312 192.113281 190.207031 191.855469 190.222656 L 191.855469 186.734375 L 192.007812 186.734375 L 193.023438 186.027344 L 194.441406 182.195312 L 195.972656 182.195312 L 197.054688 181.109375 L 197.054688 180.328125 L 209.988281 180.328125 L 211.074219 179.242188 L 211.074219 173.1875 C 211.078125 171.464844 210.75 169.808594 210.09375 168.21875 C 209.433594 166.625 208.496094 165.222656 207.277344 164.007812 L 203.851562 160.578125 C 202.984375 159.703125 202.28125 158.710938 201.75 157.59375 C 201.21875 156.480469 200.886719 155.3125 200.753906 154.082031 L 200.253906 149.425781 C 200.171875 148.644531 199.984375 147.890625 199.691406 147.164062 C 199.398438 146.4375 199.011719 145.765625 198.53125 145.148438 C 198.050781 144.53125 197.496094 143.988281 196.863281 143.527344 C 196.230469 143.066406 195.546875 142.699219 194.8125 142.429688 L 194.8125 140.800781 L 194.804688 140.667969 C 194.53125 138.304688 193.753906 136.121094 192.484375 134.117188 C 191.921875 133.234375 191.183594 132.546875 190.269531 132.042969 C 189.355469 131.542969 188.378906 131.292969 187.335938 131.296875 C 186.292969 131.292969 185.316406 131.542969 184.398438 132.042969 C 183.484375 132.542969 182.746094 133.234375 182.1875 134.117188 C 180.910156 136.121094 180.136719 138.304688 179.859375 140.667969 L 179.851562 140.800781 L 179.851562 142.429688 C 179.117188 142.699219 178.433594 143.066406 177.800781 143.527344 C 177.167969 143.988281 176.613281 144.527344 176.132812 145.148438 C 175.652344 145.765625 175.265625 146.4375 174.972656 147.164062 C 174.679688 147.890625 174.492188 148.644531 174.410156 149.425781 L 173.910156 154.082031 C 173.777344 155.3125 173.445312 156.480469 172.914062 157.59375 C 172.382812 158.710938 171.683594 159.703125 170.8125 160.578125 L 167.386719 164.007812 C 166.167969 165.222656 165.230469 166.625 164.570312 168.21875 C 163.914062 169.808594 163.585938 171.464844 163.59375 173.1875 L 163.59375 179.242188 L 164.675781 180.328125 L 177.609375 180.328125 L 177.609375 181.109375 L 178.691406 182.195312 L 180.226562 182.195312 L 181.640625 186.027344 L 182.65625 186.734375 L 182.808594 186.734375 L 182.808594 190.222656 C 182.550781 190.207031 182.285156 190.199219 181.988281 190.199219 C 180.996094 190.195312 180.019531 190.320312 179.058594 190.566406 C 178.097656 190.816406 177.179688 191.179688 176.3125 191.660156 C 175.441406 192.140625 174.648438 192.71875 173.925781 193.402344 C 173.203125 194.082031 172.574219 194.84375 172.046875 195.683594 C 171.621094 195.523438 171.1875 195.386719 170.746094 195.277344 C 170.304688 195.164062 169.859375 195.082031 169.410156 195.027344 C 168.957031 194.972656 168.503906 194.945312 168.050781 194.941406 C 167.59375 194.941406 167.140625 194.96875 166.691406 195.023438 C 166.238281 195.078125 165.792969 195.160156 165.351562 195.265625 C 164.910156 195.375 164.476562 195.511719 164.050781 195.671875 C 163.625 195.832031 163.210938 196.019531 162.808594 196.230469 C 162.40625 196.441406 162.019531 196.675781 161.644531 196.933594 C 161.269531 197.191406 160.914062 197.472656 160.574219 197.773438 C 160.230469 198.074219 159.910156 198.398438 159.609375 198.738281 C 159.308594 199.078125 159.027344 199.4375 158.769531 199.8125 C 158.511719 200.183594 158.277344 200.574219 158.066406 200.976562 C 157.855469 201.378906 157.667969 201.796875 157.507812 202.222656 C 157.34375 202.648438 157.210938 203.082031 157.101562 203.523438 C 156.992188 203.964844 156.910156 204.414062 156.855469 204.863281 C 156.800781 205.316406 156.773438 205.769531 156.773438 206.226562 C 156.773438 206.554688 156.789062 206.882812 156.820312 207.203125 L 156.808594 207.183594 C 155.796875 207.617188 154.867188 208.191406 154.019531 208.898438 C 153.175781 209.605469 152.449219 210.421875 151.839844 211.34375 C 151.234375 212.265625 150.773438 213.257812 150.457031 214.3125 C 150.140625 215.371094 149.980469 216.453125 149.984375 217.558594 L 152.152344 217.558594 C 152.148438 216.707031 152.265625 215.871094 152.5 215.054688 C 152.730469 214.238281 153.074219 213.464844 153.523438 212.742188 C 153.96875 212.019531 154.507812 211.375 155.140625 210.804688 C 155.769531 210.230469 156.464844 209.757812 157.226562 209.382812 C 157.644531 210.816406 158.316406 212.113281 159.246094 213.28125 C 160.179688 214.445312 161.296875 215.386719 162.597656 216.109375 L 163.648438 214.207031 C 163.179688 213.949219 162.738281 213.652344 162.324219 213.320312 C 161.910156 212.984375 161.527344 212.613281 161.175781 212.210938 C 160.828125 211.808594 160.515625 211.378906 160.242188 210.921875 C 159.964844 210.464844 159.734375 209.984375 159.542969 209.488281 C 159.351562 208.988281 159.207031 208.476562 159.105469 207.953125 C 159.003906 207.425781 158.949219 206.898438 158.941406 206.363281 C 158.933594 205.832031 158.972656 205.300781 159.058594 204.773438 C 159.140625 204.246094 159.273438 203.730469 159.449219 203.226562 C 159.625 202.722656 159.84375 202.238281 160.101562 201.769531 C 160.363281 201.304688 160.664062 200.867188 161 200.453125 C 161.339844 200.039062 161.710938 199.660156 162.113281 199.3125 C 162.519531 198.964844 162.949219 198.652344 163.410156 198.382812 C 163.867188 198.109375 164.347656 197.878906 164.847656 197.695312 C 165.34375 197.507812 165.855469 197.363281 166.378906 197.265625 C 166.90625 197.167969 167.433594 197.117188 167.964844 197.113281 C 168.5 197.109375 169.027344 197.152344 169.554688 197.242188 C 170.078125 197.332031 170.59375 197.464844 171.09375 197.644531 C 171.597656 197.824219 172.078125 198.046875 172.542969 198.3125 C 173.007812 198.578125 173.441406 198.878906 173.851562 199.222656 C 174.261719 199.5625 174.640625 199.9375 174.984375 200.347656 C 175.328125 200.753906 175.632812 201.1875 175.898438 201.652344 C 176.167969 202.113281 176.394531 202.59375 176.578125 203.09375 C 176.757812 203.597656 176.898438 204.109375 176.992188 204.636719 C 177.082031 205.160156 177.128906 205.691406 177.128906 206.226562 L 179.296875 206.226562 C 179.296875 205.269531 179.175781 204.328125 178.9375 203.402344 C 178.699219 202.476562 178.347656 201.59375 177.882812 200.757812 C 177.421875 199.921875 176.859375 199.15625 176.203125 198.460938 C 175.546875 197.769531 174.8125 197.167969 174 196.660156 C 174.4375 196.003906 174.949219 195.40625 175.535156 194.871094 C 176.121094 194.339844 176.761719 193.882812 177.457031 193.511719 C 178.152344 193.136719 178.886719 192.851562 179.652344 192.660156 C 180.417969 192.464844 181.195312 192.371094 181.988281 192.371094 C 182.566406 192.359375 183.140625 192.417969 183.710938 192.539062 L 184.992188 191.285156 L 184.976562 191.1875 L 184.976562 186.734375 L 189.6875 186.734375 L 189.6875 191.1875 L 189.671875 191.285156 L 190.953125 192.539062 C 191.523438 192.417969 192.097656 192.359375 192.675781 192.371094 C 193.46875 192.371094 194.246094 192.464844 195.011719 192.660156 C 195.78125 192.851562 196.511719 193.136719 197.207031 193.511719 C 197.90625 193.886719 198.546875 194.339844 199.128906 194.871094 C 199.714844 195.40625 200.226562 196.003906 200.664062 196.660156 C 199.851562 197.167969 199.117188 197.769531 198.460938 198.460938 C 197.804688 199.15625 197.242188 199.921875 196.78125 200.757812 C 196.316406 201.59375 195.964844 202.476562 195.726562 203.402344 C 195.488281 204.328125 195.367188 205.269531 195.367188 206.226562 L 197.535156 206.226562 C 197.535156 205.691406 197.582031 205.160156 197.671875 204.636719 C 197.765625 204.109375 197.90625 203.597656 198.089844 203.09375 C 198.269531 202.59375 198.496094 202.113281 198.765625 201.652344 C 199.03125 201.1875 199.339844 200.753906 199.683594 200.347656 C 200.027344 199.9375 200.402344 199.5625 200.8125 199.222656 C 201.222656 198.882812 201.660156 198.578125 202.121094 198.3125 C 202.585938 198.050781 203.066406 197.828125 203.570312 197.648438 C 204.070312 197.46875 204.585938 197.332031 205.109375 197.246094 C 205.636719 197.15625 206.164062 197.113281 206.695312 197.117188 C 207.230469 197.121094 207.757812 197.171875 208.28125 197.269531 C 208.804688 197.367188 209.316406 197.507812 209.816406 197.695312 C 210.316406 197.882812 210.796875 198.113281 211.253906 198.382812 C 211.710938 198.65625 212.144531 198.964844 212.550781 199.3125 C 212.953125 199.660156 213.324219 200.039062 213.664062 200.453125 C 214 200.867188 214.300781 201.304688 214.558594 201.773438 C 214.820312 202.238281 215.039062 202.722656 215.214844 203.226562 C 215.390625 203.730469 215.519531 204.246094 215.605469 204.773438 C 215.691406 205.300781 215.730469 205.832031 215.71875 206.363281 C 215.710938 206.898438 215.65625 207.429688 215.558594 207.953125 C 215.457031 208.476562 215.3125 208.988281 215.121094 209.488281 C 214.929688 209.984375 214.695312 210.464844 214.421875 210.921875 C 214.148438 211.378906 213.835938 211.808594 213.484375 212.210938 C 213.136719 212.613281 212.753906 212.984375 212.339844 213.320312 C 211.925781 213.652344 211.484375 213.949219 211.015625 214.207031 L 212.0625 216.109375 C 213.367188 215.386719 214.484375 214.445312 215.417969 213.28125 C 216.347656 212.113281 217.019531 210.816406 217.4375 209.382812 C 218.199219 209.757812 218.894531 210.230469 219.523438 210.804688 C 220.15625 211.375 220.695312 212.019531 221.140625 212.742188 C 221.589844 213.464844 221.933594 214.234375 222.164062 215.054688 C 222.398438 215.871094 222.515625 216.707031 222.511719 217.558594 L 224.679688 217.558594 C 224.683594 216.453125 224.523438 215.371094 224.207031 214.3125 C 223.890625 213.257812 223.429688 212.265625 222.824219 211.34375 C 222.214844 210.421875 221.488281 209.605469 220.644531 208.898438 C 219.796875 208.191406 218.867188 207.617188 217.855469 207.183594 Z M 208.90625 178.15625 L 197.054688 178.15625 L 197.054688 176.464844 L 208.90625 176.464844 Z M 194.8125 144.800781 C 195.730469 145.285156 196.480469 145.957031 197.0625 146.816406 C 197.644531 147.675781 197.992188 148.621094 198.101562 149.65625 L 198.597656 154.3125 C 198.757812 155.789062 199.15625 157.195312 199.792969 158.53125 C 200.433594 159.871094 201.273438 161.0625 202.320312 162.113281 L 205.742188 165.542969 C 206.757812 166.554688 207.539062 167.722656 208.089844 169.046875 C 208.636719 170.375 208.910156 171.753906 208.90625 173.1875 L 208.90625 174.292969 L 196.953125 174.292969 L 194.8125 169.429688 Z M 177.609375 178.15625 L 165.761719 178.15625 L 165.761719 176.464844 L 177.609375 176.464844 Z M 177.710938 174.292969 L 165.761719 174.292969 L 165.761719 173.1875 C 165.757812 171.753906 166.027344 170.375 166.574219 169.050781 C 167.125 167.722656 167.90625 166.554688 168.921875 165.542969 L 172.34375 162.113281 C 173.390625 161.0625 174.230469 159.871094 174.871094 158.53125 C 175.507812 157.195312 175.90625 155.789062 176.066406 154.3125 L 176.566406 149.65625 C 176.675781 148.621094 177.019531 147.675781 177.601562 146.816406 C 178.183594 145.957031 178.933594 145.285156 179.851562 144.800781 L 179.851562 169.429688 Z M 179.777344 180.023438 L 179.777344 174.980469 L 181.925781 170.097656 L 182.019531 169.660156 L 182.019531 140.871094 C 182.261719 138.859375 182.925781 137 184.007812 135.289062 C 184.371094 134.722656 184.847656 134.273438 185.441406 133.953125 C 186.03125 133.628906 186.664062 133.464844 187.335938 133.46875 C 188.007812 133.46875 188.640625 133.628906 189.230469 133.953125 C 189.820312 134.273438 190.296875 134.722656 190.660156 135.289062 C 191.742188 137 192.402344 138.859375 192.644531 140.871094 L 192.644531 169.660156 L 192.738281 170.097656 L 194.886719 174.980469 L 194.886719 180.023438 L 190.171875 180.023438 L 190.171875 167.316406 L 189.089844 166.230469 L 185.574219 166.230469 L 184.492188 167.316406 L 184.492188 180.023438 Z M 188.003906 168.402344 L 188.003906 180.023438 L 186.660156 180.023438 L 186.660156 168.402344 Z M 183.410156 184.5625 L 182.535156 182.195312 L 192.128906 182.195312 L 191.253906 184.5625 Z M 183.410156 184.5625"/></g><path fill="#091353" d="M 159.707031 147.621094 L 157.539062 147.621094 L 157.539062 171.429688 L 159.707031 171.429688 Z M 159.707031 147.621094"/><path fill="#091353" d="M 159.707031 178.90625 L 159.707031 174.238281 L 157.539062 174.238281 L 157.539062 178.90625 Z M 159.707031 178.90625"/><path fill="#091353" d="M 217.125 155.394531 L 214.957031 155.394531 L 214.957031 172.933594 L 217.125 172.933594 Z M 217.125 155.394531"/><path fill="#091353" d="M 217.125 180.410156 L 217.125 175.742188 L 214.957031 175.742188 L 214.957031 180.410156 Z M 217.125 180.410156"/><path fill="#091353" d="M 217.125 188.089844 L 217.125 183.421875 L 214.957031 183.421875 L 214.957031 188.089844 Z M 217.125 188.089844"/><path fill="#091353" d="M 209.605469 132.382812 L 207.4375 132.382812 L 207.4375 149.953125 L 209.605469 149.953125 Z M 209.605469 132.382812"/><path fill="#091353" d="M 209.605469 156.03125 L 209.605469 152.761719 L 207.4375 152.761719 L 207.4375 157.429688 L 209.605469 157.429688 Z M 209.605469 156.03125"/><path fill="#091353" d="M 191.863281 145.691406 L 191.863281 142.519531 L 191.839844 142.296875 C 191.617188 141.289062 191.125 140.4375 190.355469 139.75 C 188.859375 138.34375 185.808594 138.34375 184.3125 139.75 C 183.542969 140.4375 183.046875 141.289062 182.824219 142.296875 L 182.804688 142.519531 L 182.804688 145.691406 L 183.886719 146.777344 L 190.777344 146.777344 Z M 189.695312 144.605469 L 184.972656 144.605469 L 184.972656 142.640625 C 185.117188 142.125 185.390625 141.6875 185.792969 141.335938 C 186.441406 140.726562 188.226562 140.726562 188.875 141.332031 C 189.273438 141.6875 189.546875 142.125 189.695312 142.640625 Z M 189.695312 144.605469"/><g fill="#FFF"><g><g><path d="M 2.34375 0 L 2.34375 -15.65625 L 16.578125 -15.65625 L 20.203125 -12.546875 L 20.203125 -7.984375 L 16.953125 -5.21875 L 20.71875 -1.1875 L 20.71875 0 L 16.625 0 L 12.34375 -4.78125 L 6.328125 -4.78125 L 6.328125 0 Z M 6.328125 -8.09375 L 14.703125 -8.09375 L 16.21875 -9.375 L 16.21875 -11.078125 L 14.703125 -12.34375 L 6.328125 -12.34375 Z M 6.328125 -8.09375" transform="translate(84.714 251.576)"/></g></g></g><g fill="#FFF"><g><g><path d="M 5.96875 0 L 1.796875 -3.484375 L 1.796875 -12.171875 L 5.96875 -15.65625 L 17.15625 -15.65625 L 21.34375 -12.171875 L 21.34375 -3.484375 L 17.15625 0 Z M 7.765625 -3.359375 L 15.375 -3.359375 L 17.359375 -5.03125 L 17.359375 -10.625 L 15.375 -12.3125 L 7.765625 -12.3125 L 5.765625 -10.625 L 5.765625 -5.03125 Z M 7.765625 -3.359375" transform="translate(106.906 251.576)"/></g></g></g><g fill="#FFF"><g><g><path d="M 5.96875 0 L 1.796875 -3.484375 L 1.796875 -12.171875 L 5.96875 -15.65625 L 18.6875 -15.65625 L 18.6875 -12.3125 L 7.765625 -12.3125 L 5.765625 -10.625 L 5.765625 -5.03125 L 7.765625 -3.359375 L 18.6875 -3.359375 L 18.6875 0 Z M 5.96875 0" transform="translate(130.037 251.576)"/></g></g></g><g fill="#FFF"><g><g><path d="M 2.34375 0 L 2.34375 -15.65625 L 6.328125 -15.65625 L 6.328125 -9.671875 L 10.109375 -9.671875 L 15.734375 -15.65625 L 19.75 -15.65625 L 19.75 -14.484375 L 13.515625 -8.03125 L 20.3125 -1.1875 L 20.3125 0 L 16.0625 0 L 10.203125 -6.171875 L 6.328125 -6.171875 L 6.328125 0 Z M 2.34375 0" transform="translate(149.813 251.576)"/></g></g></g><g fill="#FFF"><g><g><path d="M 2.34375 0 L 2.34375 -15.65625 L 19.328125 -15.65625 L 19.328125 -12.34375 L 6.328125 -12.34375 L 6.328125 -9.390625 L 16.203125 -9.390625 L 16.203125 -6.375 L 6.328125 -6.375 L 6.328125 -3.3125 L 19.59375 -3.3125 L 19.59375 0 Z M 2.34375 0" transform="translate(170.775 251.576)"/></g></g></g><g fill="#FFF"><g><g><path d="M 7.734375 0 L 7.734375 -12.3125 L 0.328125 -12.3125 L 0.328125 -15.65625 L 19.125 -15.65625 L 19.125 -12.3125 L 11.71875 -12.3125 L 11.71875 0 Z M 7.734375 0" transform="translate(191.535 251.576)"/></g></g></g><g fill="#FFF"><g><g><path d="M 1.8125 0 L 1.8125 -3.25 L 14.234375 -3.25 L 15.296875 -4.140625 L 15.296875 -5.375 L 14.234375 -6.265625 L 4.75 -6.265625 L 1.453125 -9.046875 L 1.453125 -12.890625 L 4.75 -15.65625 L 18.34375 -15.65625 L 18.34375 -12.421875 L 6.515625 -12.421875 L 5.4375 -11.515625 L 5.4375 -10.453125 L 6.515625 -9.546875 L 16 -9.546875 L 19.28125 -6.78125 L 19.28125 -2.78125 L 16 0 Z M 1.8125 0" transform="translate(210.998 251.576)"/></g></g></g><g fill="#FFF"><g><g><path d="M 2.34375 0 L 2.34375 -15.65625 L 6.328125 -15.65625 L 6.328125 -9.578125 L 16.6875 -9.578125 L 16.6875 -15.65625 L 20.671875 -15.65625 L 20.671875 0 L 16.6875 0 L 16.6875 -6.09375 L 6.328125 -6.09375 L 6.328125 0 Z M 2.34375 0" transform="translate(231.468 251.576)"/></g></g></g><g fill="#FFF"><g><g><path d="M 1.34375 0 L 1.34375 -3.203125 L 5.34375 -3.203125 L 5.34375 -12.46875 L 1.34375 -12.46875 L 1.34375 -15.65625 L 13.328125 -15.65625 L 13.328125 -12.46875 L 9.328125 -12.46875 L 9.328125 -3.203125 L 13.328125 -3.203125 L 13.328125 0 Z M 1.34375 0" transform="translate(254.487 251.576)"/></g></g></g><g fill="#FFF"><g><g><path d="M 2.34375 0 L 2.34375 -15.65625 L 16.25 -15.65625 L 19.9375 -12.59375 L 19.9375 -7.34375 L 16.25 -4.28125 L 6.328125 -4.28125 L 6.328125 0 Z M 6.328125 -7.609375 L 14.40625 -7.609375 L 15.953125 -8.890625 L 15.953125 -11.046875 L 14.40625 -12.34375 L 6.328125 -12.34375 Z M 6.328125 -7.609375" transform="translate(269.163 251.576)"/></g></g></g><g fill="#FFF"><g><g><path d="M 0.671875 0 L 0.671875 -0.671875 L 4.9375 -0.671875 L 5.53125 -1.171875 L 5.53125 -1.84375 L 4.9375 -2.328125 L 1.609375 -2.328125 L 0.59375 -3.171875 L 0.59375 -4.421875 L 1.609375 -5.265625 L 5.9375 -5.265625 L 5.9375 -4.578125 L 1.953125 -4.578125 L 1.359375 -4.09375 L 1.359375 -3.5 L 1.953125 -3 L 5.265625 -3 L 6.28125 -2.171875 L 6.28125 -0.84375 L 5.265625 0 Z M 0.671875 0" transform="translate(87.646 263.687)"/></g></g></g><g fill="#FFF"><g><g><path d="M 0.90625 0 L 0.90625 -5.265625 L 5.28125 -5.265625 L 6.53125 -4.234375 L 6.53125 -2.71875 L 5.28125 -1.6875 L 1.65625 -1.6875 L 1.65625 0 Z M 1.65625 -2.375 L 4.953125 -2.375 L 5.78125 -3.046875 L 5.78125 -3.90625 L 4.953125 -4.578125 L 1.65625 -4.578125 Z M 1.65625 -2.375" transform="translate(100.425 263.687)"/></g></g></g><g fill="#FFF"><g><g><path d="M 4.125 -5.265625 L 6.953125 -0.265625 L 6.953125 0 L 6.234375 0 L 5.46875 -1.390625 L 1.703125 -1.390625 L 0.921875 0 L 0.21875 0 L 0.21875 -0.265625 L 3.046875 -5.265625 Z M 2.078125 -2.0625 L 5.09375 -2.0625 L 3.65625 -4.625 L 3.515625 -4.625 Z M 2.078125 -2.0625" transform="translate(113.468 263.687)"/></g></g></g><g fill="#FFF"><g><g><path d="M 2.078125 0 L 0.71875 -1.15625 L 0.71875 -4.109375 L 2.078125 -5.265625 L 6.28125 -5.265625 L 6.28125 -4.578125 L 2.40625 -4.578125 L 1.46875 -3.796875 L 1.46875 -1.46875 L 2.40625 -0.671875 L 6.28125 -0.671875 L 6.28125 0 Z M 2.078125 0" transform="translate(126.66 263.687)"/></g></g></g><g fill="#FFF"><g><g><path d="M 0.90625 0 L 0.90625 -5.265625 L 6.421875 -5.265625 L 6.421875 -4.578125 L 1.65625 -4.578125 L 1.65625 -2.96875 L 5.375 -2.96875 L 5.375 -2.296875 L 1.65625 -2.296875 L 1.65625 -0.671875 L 6.53125 -0.671875 L 6.53125 0 Z M 0.90625 0" transform="translate(139.364 263.687)"/></g></g></g><g fill="#FFF"><g><g><path d="M 0.90625 0 L 0.90625 -5.265625 L 1.65625 -5.265625 L 1.65625 -0.671875 L 5.71875 -0.671875 L 5.71875 0 Z M 0.90625 0" transform="translate(174.582 263.687)"/></g></g></g><g fill="#FFF"><g><g><path d="M 2.921875 0 L 2.921875 -2.015625 L 0.1875 -5 L 0.1875 -5.265625 L 0.953125 -5.265625 L 3.203125 -2.75 L 3.40625 -2.75 L 5.671875 -5.265625 L 6.390625 -5.265625 L 6.390625 -5 L 3.671875 -2.015625 L 3.671875 0 Z M 2.921875 0" transform="translate(199.69 263.687)"/></g></g></g><g fill="#FFF"><g><g><path d="M 2.078125 0 L 0.71875 -1.15625 L 0.71875 -4.109375 L 2.078125 -5.265625 L 6.5 -5.265625 L 6.5 -4.578125 L 2.40625 -4.578125 L 1.46875 -3.796875 L 1.46875 -1.46875 L 2.40625 -0.671875 L 5.34375 -0.671875 L 6.28125 -1.46875 L 6.28125 -2.375 L 3.609375 -2.375 L 3.609375 -3.046875 L 7.03125 -3.046875 L 7.03125 -1.15625 L 5.671875 0 Z M 2.078125 0" transform="translate(212.28 263.687)"/></g></g></g><g fill="#FFF"><g><g><path d="M 0.90625 0 L 0.90625 -5.265625 L 5.34375 -5.265625 L 6.59375 -4.21875 L 6.59375 -2.90625 L 5.390625 -1.90625 L 6.796875 -0.265625 L 6.796875 0 L 6.046875 0 L 4.453125 -1.875 L 1.65625 -1.875 L 1.65625 0 Z M 1.65625 -2.5625 L 5.015625 -2.5625 L 5.84375 -3.234375 L 5.84375 -3.90625 L 5.015625 -4.578125 L 1.65625 -4.578125 Z M 1.65625 -2.5625" transform="translate(225.887 263.687)"/></g></g></g><g fill="#FFF"><g><g><path d="M 2.078125 0 L 0.71875 -1.15625 L 0.71875 -4.109375 L 2.078125 -5.265625 L 5.625 -5.265625 L 6.984375 -4.109375 L 6.984375 -1.15625 L 5.625 0 Z M 2.40625 -0.671875 L 5.296875 -0.671875 L 6.234375 -1.46875 L 6.234375 -3.796875 L 5.296875 -4.578125 L 2.40625 -4.578125 L 1.46875 -3.796875 L 1.46875 -1.46875 Z M 2.40625 -0.671875" transform="translate(239.268 263.687)"/></g></g></g><g fill="#FFF"><g><g><path d="M 2.15625 0 L 0.796875 -1.15625 L 0.796875 -5.265625 L 1.546875 -5.265625 L 1.546875 -1.46875 L 2.484375 -0.671875 L 4.765625 -0.671875 L 5.71875 -1.46875 L 5.71875 -5.265625 L 6.46875 -5.265625 L 6.46875 -1.15625 L 5.109375 0 Z M 2.15625 0" transform="translate(252.986 263.687)"/></g></g></g><g fill="#FFF"><g><g><path d="M 0.90625 0 L 0.90625 -5.265625 L 2.203125 -5.265625 L 5.703125 -0.671875 L 5.84375 -0.671875 L 5.84375 -5.265625 L 6.578125 -5.265625 L 6.578125 0 L 5.28125 0 L 1.78125 -4.578125 L 1.625 -4.578125 L 1.625 0 Z M 0.90625 0" transform="translate(266.254 263.687)"/></g></g></g><g fill="#FFF"><g><g><path d="M 0.90625 0 L 0.90625 -5.265625 L 5.515625 -5.265625 L 6.875 -4.109375 L 6.875 -1.15625 L 5.515625 0 Z M 1.65625 -0.671875 L 5.1875 -0.671875 L 6.125 -1.46875 L 6.125 -3.796875 L 5.1875 -4.578125 L 1.65625 -4.578125 Z M 1.65625 -0.671875" transform="translate(279.747 263.687)"/></g></g></g></svg>